<mxfile host="app.diagrams.net" agent="Mozilla/5.0 (Windows NT 10.0; Win64; x64) AppleWebKit/537.36 (KHTML, like Gecko) Chrome/126.0.0.0 Safari/537.36" version="25.0.1">
  <diagram name="第 1 页" id="HLP3MT9LLrLZm3aDhicc">
    <mxGraphModel dx="2257" dy="823" grid="1" gridSize="10" guides="1" tooltips="1" connect="1" arrows="1" fold="1" page="1" pageScale="1" pageWidth="827" pageHeight="1169" math="0" shadow="0">
      <root>
        <mxCell id="0" />
        <mxCell id="1" parent="0" />
        <mxCell id="LrZ61WwTFHnkXpF8pCKX-4" value="APP" style="shape=umlLifeline;perimeter=lifelinePerimeter;whiteSpace=wrap;html=1;container=0;dropTarget=0;collapsible=0;recursiveResize=0;outlineConnect=0;portConstraint=eastwest;newEdgeStyle={&quot;edgeStyle&quot;:&quot;elbowEdgeStyle&quot;,&quot;elbow&quot;:&quot;vertical&quot;,&quot;curved&quot;:0,&quot;rounded&quot;:0};" parent="1" vertex="1">
          <mxGeometry x="-475" y="40" width="100" height="620" as="geometry" />
        </mxCell>
        <mxCell id="LrZ61WwTFHnkXpF8pCKX-6" value="" style="html=1;points=[];perimeter=orthogonalPerimeter;outlineConnect=0;targetShapes=umlLifeline;portConstraint=eastwest;newEdgeStyle={&quot;edgeStyle&quot;:&quot;elbowEdgeStyle&quot;,&quot;elbow&quot;:&quot;vertical&quot;,&quot;curved&quot;:0,&quot;rounded&quot;:0};" parent="LrZ61WwTFHnkXpF8pCKX-4" vertex="1">
          <mxGeometry x="45" y="391" width="10" height="190" as="geometry" />
        </mxCell>
        <mxCell id="LrZ61WwTFHnkXpF8pCKX-10" value="DeviceOEM-Server" style="shape=umlLifeline;perimeter=lifelinePerimeter;whiteSpace=wrap;html=1;container=0;dropTarget=0;collapsible=0;recursiveResize=0;outlineConnect=0;portConstraint=eastwest;newEdgeStyle={&quot;edgeStyle&quot;:&quot;elbowEdgeStyle&quot;,&quot;elbow&quot;:&quot;vertical&quot;,&quot;curved&quot;:0,&quot;rounded&quot;:0};" parent="1" vertex="1">
          <mxGeometry x="-255" y="40" width="140" height="620" as="geometry" />
        </mxCell>
        <mxCell id="LrZ61WwTFHnkXpF8pCKX-12" value="" style="html=1;points=[];perimeter=orthogonalPerimeter;outlineConnect=0;targetShapes=umlLifeline;portConstraint=eastwest;newEdgeStyle={&quot;edgeStyle&quot;:&quot;elbowEdgeStyle&quot;,&quot;elbow&quot;:&quot;vertical&quot;,&quot;curved&quot;:0,&quot;rounded&quot;:0};" parent="LrZ61WwTFHnkXpF8pCKX-10" vertex="1">
          <mxGeometry x="65" y="401" width="10" height="90" as="geometry" />
        </mxCell>
        <mxCell id="LrZ61WwTFHnkXpF8pCKX-13" value="" style="endArrow=classic;html=1;rounded=0;" parent="LrZ61WwTFHnkXpF8pCKX-10" target="LrZ61WwTFHnkXpF8pCKX-18" edge="1">
          <mxGeometry width="50" height="50" relative="1" as="geometry">
            <mxPoint x="75" y="431" as="sourcePoint" />
            <mxPoint x="285" y="431" as="targetPoint" />
          </mxGeometry>
        </mxCell>
        <mxCell id="LrZ61WwTFHnkXpF8pCKX-14" value="获取车云RTT" style="edgeLabel;html=1;align=center;verticalAlign=middle;resizable=0;points=[];" parent="LrZ61WwTFHnkXpF8pCKX-13" vertex="1" connectable="0">
          <mxGeometry x="-0.1703" y="2" relative="1" as="geometry">
            <mxPoint x="18" as="offset" />
          </mxGeometry>
        </mxCell>
        <mxCell id="LrZ61WwTFHnkXpF8pCKX-17" value="VehicleOEM-Server" style="shape=umlLifeline;perimeter=lifelinePerimeter;whiteSpace=wrap;html=1;container=0;dropTarget=0;collapsible=0;recursiveResize=0;outlineConnect=0;portConstraint=eastwest;newEdgeStyle={&quot;edgeStyle&quot;:&quot;elbowEdgeStyle&quot;,&quot;elbow&quot;:&quot;vertical&quot;,&quot;curved&quot;:0,&quot;rounded&quot;:0};" parent="1" vertex="1">
          <mxGeometry x="-25" y="40" width="140" height="620" as="geometry" />
        </mxCell>
        <mxCell id="LrZ61WwTFHnkXpF8pCKX-18" value="" style="html=1;points=[];perimeter=orthogonalPerimeter;outlineConnect=0;targetShapes=umlLifeline;portConstraint=eastwest;newEdgeStyle={&quot;edgeStyle&quot;:&quot;elbowEdgeStyle&quot;,&quot;elbow&quot;:&quot;vertical&quot;,&quot;curved&quot;:0,&quot;rounded&quot;:0};" parent="LrZ61WwTFHnkXpF8pCKX-17" vertex="1">
          <mxGeometry x="65" y="421" width="10" height="50" as="geometry" />
        </mxCell>
        <mxCell id="LrZ61WwTFHnkXpF8pCKX-20" value="Vehicle" style="shape=umlLifeline;perimeter=lifelinePerimeter;whiteSpace=wrap;html=1;container=0;dropTarget=0;collapsible=0;recursiveResize=0;outlineConnect=0;portConstraint=eastwest;newEdgeStyle={&quot;edgeStyle&quot;:&quot;elbowEdgeStyle&quot;,&quot;elbow&quot;:&quot;vertical&quot;,&quot;curved&quot;:0,&quot;rounded&quot;:0};" parent="1" vertex="1">
          <mxGeometry x="215" y="40" width="140" height="620" as="geometry" />
        </mxCell>
        <mxCell id="LrZ61WwTFHnkXpF8pCKX-26" value="" style="endArrow=classic;html=1;rounded=0;" parent="1" edge="1">
          <mxGeometry width="50" height="50" relative="1" as="geometry">
            <mxPoint x="275" y="189" as="sourcePoint" />
            <mxPoint x="55" y="189" as="targetPoint" />
          </mxGeometry>
        </mxCell>
        <mxCell id="LrZ61WwTFHnkXpF8pCKX-27" value="上报vehicleTime" style="edgeLabel;html=1;align=center;verticalAlign=middle;resizable=0;points=[];" parent="LrZ61WwTFHnkXpF8pCKX-26" vertex="1" connectable="0">
          <mxGeometry x="-0.1703" y="2" relative="1" as="geometry">
            <mxPoint x="-13" y="-3" as="offset" />
          </mxGeometry>
        </mxCell>
        <mxCell id="LrZ61WwTFHnkXpF8pCKX-28" value="&lt;div&gt;&lt;font style=&quot;font-size: 11px;&quot;&gt;周期：&lt;/font&gt;&lt;/div&gt;&lt;div&gt;&lt;font style=&quot;font-size: 11px;&quot;&gt;车辆启动 3分钟 / 次&lt;/font&gt;&lt;/div&gt;&lt;div&gt;&lt;font style=&quot;font-size: 11px;&quot;&gt;车辆驻车 30分钟 / 次&lt;/font&gt;&lt;/div&gt;" style="html=1;align=left;spacingLeft=2;endArrow=block;rounded=0;edgeStyle=orthogonalEdgeStyle;curved=0;rounded=0;fontFamily=Helvetica;fontSize=12;fontColor=default;" parent="1" edge="1">
          <mxGeometry relative="1" as="geometry">
            <mxPoint x="290" y="150" as="sourcePoint" />
            <Array as="points">
              <mxPoint x="320" y="150" />
              <mxPoint x="320" y="180" />
            </Array>
            <mxPoint x="290" y="180" as="targetPoint" />
            <mxPoint as="offset" />
          </mxGeometry>
        </mxCell>
        <mxCell id="LrZ61WwTFHnkXpF8pCKX-30" value="&lt;font style=&quot;font-size: 11px;&quot;&gt;心跳&lt;/font&gt;" style="shape=umlFrame;whiteSpace=wrap;html=1;pointerEvents=0;sketch=0;strokeColor=default;align=center;verticalAlign=middle;fontFamily=Helvetica;fontSize=12;fontColor=default;fillColor=default;" parent="1" vertex="1">
          <mxGeometry x="-555" y="90" width="1185" height="300" as="geometry" />
        </mxCell>
        <mxCell id="LrZ61WwTFHnkXpF8pCKX-37" value="" style="endArrow=classic;html=1;rounded=0;" parent="1" edge="1">
          <mxGeometry width="50" height="50" relative="1" as="geometry">
            <mxPoint x="55" y="217" as="sourcePoint" />
            <mxPoint x="280" y="217" as="targetPoint" />
          </mxGeometry>
        </mxCell>
        <mxCell id="LrZ61WwTFHnkXpF8pCKX-38" value="下发vehicleTime, serverTime" style="edgeLabel;html=1;align=center;verticalAlign=middle;resizable=0;points=[];" parent="LrZ61WwTFHnkXpF8pCKX-37" vertex="1" connectable="0">
          <mxGeometry x="-0.1703" y="2" relative="1" as="geometry">
            <mxPoint as="offset" />
          </mxGeometry>
        </mxCell>
        <mxCell id="LrZ61WwTFHnkXpF8pCKX-39" value="&lt;font style=&quot;font-size: 11px;&quot;&gt;获取车辆信号强度&lt;/font&gt;" style="shape=umlFrame;whiteSpace=wrap;html=1;pointerEvents=0;sketch=0;strokeColor=default;align=center;verticalAlign=middle;fontFamily=Helvetica;fontSize=12;fontColor=default;fillColor=default;" parent="1" vertex="1">
          <mxGeometry x="-555" y="411" width="1185" height="220" as="geometry" />
        </mxCell>
        <mxCell id="LrZ61WwTFHnkXpF8pCKX-40" value="返回 sdkTime, 车云RTT" style="html=1;verticalAlign=bottom;endArrow=open;dashed=1;endSize=8;edgeStyle=elbowEdgeStyle;elbow=vertical;curved=0;rounded=0;" parent="1" edge="1">
          <mxGeometry y="10" relative="1" as="geometry">
            <mxPoint x="-420" y="521" as="targetPoint" />
            <Array as="points" />
            <mxPoint x="-190" y="521" as="sourcePoint" />
            <mxPoint as="offset" />
          </mxGeometry>
        </mxCell>
        <mxCell id="LrZ61WwTFHnkXpF8pCKX-47" value="" style="html=1;points=[];perimeter=orthogonalPerimeter;outlineConnect=0;targetShapes=umlLifeline;portConstraint=eastwest;newEdgeStyle={&quot;edgeStyle&quot;:&quot;elbowEdgeStyle&quot;,&quot;elbow&quot;:&quot;vertical&quot;,&quot;curved&quot;:0,&quot;rounded&quot;:0};" parent="1" vertex="1">
          <mxGeometry x="40" y="170" width="10" height="210" as="geometry" />
        </mxCell>
        <mxCell id="LrZ61WwTFHnkXpF8pCKX-49" value="" style="html=1;points=[];perimeter=orthogonalPerimeter;outlineConnect=0;targetShapes=umlLifeline;portConstraint=eastwest;newEdgeStyle={&quot;edgeStyle&quot;:&quot;elbowEdgeStyle&quot;,&quot;elbow&quot;:&quot;vertical&quot;,&quot;curved&quot;:0,&quot;rounded&quot;:0};" parent="1" vertex="1">
          <mxGeometry x="280" y="140" width="10" height="170" as="geometry" />
        </mxCell>
        <mxCell id="LrZ61WwTFHnkXpF8pCKX-51" value="" style="endArrow=classic;html=1;rounded=0;" parent="1" edge="1">
          <mxGeometry width="50" height="50" relative="1" as="geometry">
            <mxPoint x="275" y="254" as="sourcePoint" />
            <mxPoint x="55" y="254" as="targetPoint" />
          </mxGeometry>
        </mxCell>
        <mxCell id="LrZ61WwTFHnkXpF8pCKX-52" value="上报serverTime" style="edgeLabel;html=1;align=center;verticalAlign=middle;resizable=0;points=[];" parent="LrZ61WwTFHnkXpF8pCKX-51" vertex="1" connectable="0">
          <mxGeometry x="-0.1703" y="2" relative="1" as="geometry">
            <mxPoint x="-13" y="-3" as="offset" />
          </mxGeometry>
        </mxCell>
        <mxCell id="LrZ61WwTFHnkXpF8pCKX-53" value="&lt;font style=&quot;font-size: 11px;&quot;&gt;车辆进行RTC时钟校准&lt;br&gt;车端RTT = 当前时间 - vehicleTime&lt;br&gt;&lt;/font&gt;&lt;div&gt;&lt;font style=&quot;font-size: 11px;&quot;&gt;RTC = serverTime + 车端RTT&amp;nbsp;/ 2&lt;/font&gt;&lt;/div&gt;" style="html=1;align=left;spacingLeft=2;endArrow=block;rounded=0;edgeStyle=orthogonalEdgeStyle;curved=0;rounded=0;fontFamily=Helvetica;fontSize=12;fontColor=default;" parent="1" edge="1">
          <mxGeometry x="-0.0046" relative="1" as="geometry">
            <mxPoint x="290" y="219" as="sourcePoint" />
            <Array as="points">
              <mxPoint x="320" y="219" />
              <mxPoint x="320" y="249" />
            </Array>
            <mxPoint x="290" y="249" as="targetPoint" />
            <mxPoint as="offset" />
          </mxGeometry>
        </mxCell>
        <mxCell id="LrZ61WwTFHnkXpF8pCKX-54" value="&lt;font style=&quot;font-size: 11px;&quot;&gt;来回通信延迟 云端RTT =&amp;nbsp; 当前时间 - serverTime&lt;/font&gt;" style="html=1;align=left;spacingLeft=2;endArrow=block;rounded=0;edgeStyle=orthogonalEdgeStyle;curved=0;rounded=0;fontFamily=Helvetica;fontSize=12;fontColor=default;" parent="1" edge="1">
          <mxGeometry relative="1" as="geometry">
            <mxPoint x="50" y="330" as="sourcePoint" />
            <Array as="points">
              <mxPoint x="80" y="330" />
              <mxPoint x="80" y="360" />
            </Array>
            <mxPoint x="50" y="360" as="targetPoint" />
            <mxPoint as="offset" />
          </mxGeometry>
        </mxCell>
        <mxCell id="LrZ61WwTFHnkXpF8pCKX-55" value="" style="endArrow=classic;html=1;rounded=0;" parent="1" edge="1">
          <mxGeometry width="50" height="50" relative="1" as="geometry">
            <mxPoint x="-415" y="451" as="sourcePoint" />
            <mxPoint x="-195" y="451" as="targetPoint" />
          </mxGeometry>
        </mxCell>
        <mxCell id="LrZ61WwTFHnkXpF8pCKX-56" value="请求车云时间，sdkTime" style="edgeLabel;html=1;align=center;verticalAlign=middle;resizable=0;points=[];" parent="LrZ61WwTFHnkXpF8pCKX-55" vertex="1" connectable="0">
          <mxGeometry x="-0.1703" y="2" relative="1" as="geometry">
            <mxPoint as="offset" />
          </mxGeometry>
        </mxCell>
        <mxCell id="LrZ61WwTFHnkXpF8pCKX-15" value="返回车云RTT" style="html=1;verticalAlign=bottom;endArrow=open;dashed=1;endSize=8;edgeStyle=elbowEdgeStyle;elbow=vertical;curved=0;rounded=0;" parent="1" edge="1">
          <mxGeometry x="-0.0047" y="10" relative="1" as="geometry">
            <mxPoint x="-180" y="503" as="targetPoint" />
            <Array as="points" />
            <mxPoint x="35" y="503" as="sourcePoint" />
            <mxPoint as="offset" />
          </mxGeometry>
        </mxCell>
        <mxCell id="LrZ61WwTFHnkXpF8pCKX-57" value="&lt;font style=&quot;font-size: 11px;&quot;&gt;设置车辆在线状态，&lt;/font&gt;&lt;div&gt;&lt;font style=&quot;font-size: 11px;&quot;&gt;超时 35分钟 设置为下线&lt;/font&gt;&lt;/div&gt;" style="html=1;align=left;spacingLeft=2;endArrow=block;rounded=0;edgeStyle=orthogonalEdgeStyle;curved=0;rounded=0;fontFamily=Helvetica;fontSize=12;fontColor=default;" parent="1" edge="1">
          <mxGeometry relative="1" as="geometry">
            <mxPoint x="50" y="282" as="sourcePoint" />
            <Array as="points">
              <mxPoint x="80" y="282" />
              <mxPoint x="80" y="312" />
            </Array>
            <mxPoint x="50" y="312" as="targetPoint" />
            <mxPoint as="offset" />
          </mxGeometry>
        </mxCell>
        <mxCell id="LrZ61WwTFHnkXpF8pCKX-58" value="&lt;font style=&quot;font-size: 11px;&quot;&gt;app到车端整体RTT = 本地时间 - sdkTime + 车云RTT&lt;/font&gt;" style="html=1;align=left;spacingLeft=2;endArrow=block;rounded=0;edgeStyle=orthogonalEdgeStyle;curved=0;rounded=0;fontFamily=Helvetica;fontSize=12;fontColor=default;" parent="1" edge="1">
          <mxGeometry relative="1" as="geometry">
            <mxPoint x="-415" y="551" as="sourcePoint" />
            <Array as="points">
              <mxPoint x="-385" y="551" />
              <mxPoint x="-385" y="581" />
            </Array>
            <mxPoint x="-415" y="581" as="targetPoint" />
            <mxPoint as="offset" />
          </mxGeometry>
        </mxCell>
      </root>
    </mxGraphModel>
  </diagram>
</mxfile>
